<svg xmlns="http://www.w3.org/2000/svg" viewBox="0 0 220 220" fill="none">
    <defs>
        <linearGradient id="talkie-bg" x1="30" y1="26" x2="178" y2="202" gradientUnits="userSpaceOnUse">
            <stop stop-color="#7E8CFF"/>
            <stop offset="1" stop-color="#2F3CB8"/>
        </linearGradient>
    </defs>
    <path d="M110 14C59.2 14 18 54.8 18 105.2c0 24.1 9.4 46.1 24.7 62.5L35 206l41.4-13.6c10.3 3.2 21.3 4.8 33.6 4.8 50.8 0 92-40.8 92-92S160.8 14 110 14z" fill="url(#talkie-bg)"/>
    <circle cx="110" cy="104" r="53" fill="#DDE3FF" opacity="0.16"/>
    <rect x="62" y="81" width="96" height="54" rx="27" fill="#F4F6FF"/>
    <circle cx="93" cy="108" r="6" fill="#3343B5"/>
    <circle cx="127" cy="108" r="6" fill="#3343B5"/>
    <path d="M95 124c10.8 7.8 20.5 7.8 31.5 0" stroke="#3343B5" stroke-width="6" stroke-linecap="round"/>
    <path d="M66 95c0-20 18-36 44-36s44 16 44 36" stroke="#2D3AAE" stroke-width="8" stroke-linecap="round"/>
    <rect x="49" y="93" width="13" height="30" rx="6.5" fill="#2D3AAE"/>
    <rect x="158" y="93" width="13" height="30" rx="6.5" fill="#2D3AAE"/>
    <circle cx="153" cy="132" r="7" fill="#7E8CFF"/>
</svg>
